<svg width="170" height="170" viewBox="0 0 170 170" fill="none" xmlns="http://www.w3.org/2000/svg">
<path d="M54.8678 42.9951H110.842C112.237 42.9951 113.576 43.5495 114.563 44.5364C115.549 45.5233 116.104 46.8617 116.104 48.2573V126.72C116.104 127.411 115.968 128.095 115.703 128.734C115.439 129.372 115.052 129.952 114.563 130.441C114.074 130.929 113.494 131.317 112.856 131.581C112.218 131.846 111.534 131.982 110.843 131.982H54.8687C54.1776 131.982 53.4933 131.846 52.8549 131.581C52.2164 131.317 51.6364 130.929 51.1477 130.441C50.659 129.952 50.2715 129.372 50.007 128.733C49.7426 128.095 49.6064 127.41 49.6064 126.72V48.2573C49.6064 47.5663 49.7423 46.8821 50.0067 46.2436C50.2711 45.6052 50.6586 45.0251 51.1471 44.5364C51.6357 44.0478 52.2158 43.6601 52.8542 43.3957C53.4926 43.1312 54.1768 42.9951 54.8678 42.9951Z" fill="black"/>
<path fill-rule="evenodd" clip-rule="evenodd" d="M113.726 49.0287C113.72 48.1039 113.348 47.2192 112.689 46.5691C112.032 45.919 111.143 45.5567 110.218 45.5619L90.5555 45.5855C89.7638 47.1128 89.8004 47.1479 89.5862 47.1487L77.7332 47.2033C77.5564 47.2513 77.5621 47.1642 76.5423 45.5831L55.4926 45.5602C55.0347 45.5575 54.5807 45.645 54.1565 45.8177C53.7325 45.9904 53.3465 46.2451 53.0208 46.567C52.6952 46.889 52.4361 47.2719 52.2586 47.694C52.081 48.1162 51.9883 48.5692 51.9858 49.0271V125.591C51.9883 126.048 52.081 126.501 52.2586 126.923C52.4361 127.346 52.6952 127.729 53.0208 128.051C53.3465 128.372 53.7325 128.627 54.1565 128.8C54.5807 128.973 55.0347 129.06 55.4926 129.057H110.218C110.676 129.06 111.13 128.973 111.554 128.8C111.978 128.627 112.364 128.372 112.689 128.051C113.015 127.729 113.274 127.346 113.453 126.923C113.63 126.501 113.723 126.048 113.726 125.591V49.0287Z" fill="white"/>
<path d="M98.563 72.8732H67.1486C66.1638 72.8834 65.1868 72.6984 64.274 72.3287C63.3612 71.959 62.5308 71.4119 61.8308 70.7192C61.1308 70.0265 60.5751 69.2018 60.1959 68.2929C59.8166 67.3841 59.6213 66.4091 59.6213 65.4242C59.6213 64.4394 59.8166 63.4643 60.1959 62.5555C60.5751 61.6466 61.1308 60.822 61.8308 60.1293C62.5308 59.4365 63.3612 58.8895 64.274 58.5197C65.1868 58.15 66.1638 57.9649 67.1486 57.9753H98.563C99.5478 57.9649 100.525 58.15 101.438 58.5197C102.35 58.8895 103.181 59.4365 103.881 60.1293C104.581 60.822 105.137 61.6466 105.515 62.5555C105.895 63.4643 106.091 64.4394 106.091 65.4242C106.091 66.4091 105.895 67.3841 105.515 68.2929C105.137 69.2018 104.581 70.0265 103.881 70.7192C103.181 71.4119 102.35 71.959 101.438 72.3287C100.525 72.6984 99.5478 72.8834 98.563 72.8732ZM67.1486 58.5056C65.3266 58.5254 63.586 59.263 62.3047 60.5583C61.0233 61.8537 60.3046 63.6022 60.3046 65.4242C60.3046 67.2463 61.0233 68.9948 62.3047 70.2901C63.586 71.5855 65.3266 72.3231 67.1486 72.3429H98.563C100.385 72.3231 102.125 71.5855 103.406 70.2901C104.689 68.9948 105.407 67.2463 105.407 65.4242C105.407 63.6022 104.689 61.8537 103.406 60.5583C102.125 59.263 100.385 58.5254 98.563 58.5056H67.1486Z" fill="black"/>
<path d="M98.563 92.6644H67.1486C66.1638 92.675 65.1868 92.4893 64.274 92.1203C63.3612 91.7505 62.5308 91.2031 61.8308 90.5107C61.1308 89.8175 60.5751 88.9931 60.1959 88.084C59.8166 87.175 59.6213 86.1999 59.6213 85.2159C59.6213 84.2306 59.8166 83.2556 60.1959 82.3468C60.5751 81.4378 61.1308 80.6132 61.8308 79.9205C62.5308 79.2278 63.3612 78.6807 64.274 78.311C65.1868 77.9413 66.1638 77.7563 67.1486 77.7665H98.563C99.5478 77.7563 100.525 77.9413 101.438 78.311C102.35 78.6807 103.181 79.2278 103.881 79.9205C104.581 80.6132 105.137 81.4378 105.515 82.3468C105.895 83.2556 106.091 84.2306 106.091 85.2159C106.091 86.1999 105.895 87.175 105.515 88.084C105.137 88.9931 104.581 89.8175 103.881 90.5107C103.181 91.2031 102.35 91.7505 101.438 92.1203C100.525 92.4893 99.5478 92.675 98.563 92.6644ZM67.1486 78.2968C65.3266 78.3166 63.586 79.0542 62.3047 80.3496C61.0233 81.6449 60.3046 83.3934 60.3046 85.2159C60.3046 87.0373 61.0233 88.7862 62.3047 90.0814C63.586 91.3766 65.3266 92.1146 67.1486 92.1341H98.563C100.385 92.1146 102.125 91.3766 103.406 90.0814C104.689 88.7862 105.407 87.0373 105.407 85.2159C105.407 83.3934 104.689 81.6449 103.406 80.3496C102.125 79.0542 100.385 78.3166 98.563 78.2968H67.1486Z" fill="black"/>
<path fill-rule="evenodd" clip-rule="evenodd" d="M82.4325 101.908C88.9785 101.908 94.292 103.695 94.292 105.9C94.292 108.104 88.9785 109.891 82.4325 109.891C75.8865 109.891 70.573 108.104 70.573 105.9C70.573 103.695 75.8873 101.908 82.4325 101.908Z" fill="#F7CA00"/>
<path d="M82.4333 110.15C75.6339 110.15 70.3074 108.282 70.3074 105.896C70.3074 103.511 75.6339 101.644 82.4333 101.644C89.2326 101.644 94.5575 103.511 94.5575 105.896C94.5575 108.282 89.2358 110.15 82.4333 110.15ZM82.4333 102.174C75.4971 102.174 70.8385 104.099 70.8385 105.896C70.8385 107.694 75.4971 109.62 82.4333 109.62C89.3694 109.62 94.0264 107.694 94.0264 105.896C94.0264 104.099 89.3678 102.174 82.4333 102.174Z" fill="black"/>
<path d="M71.6467 67.2566L69.027 65.4645L71.6467 63.6724C71.7049 63.6326 71.7447 63.5713 71.7577 63.5019C71.7705 63.4327 71.7554 63.3611 71.7155 63.303C71.6757 63.2449 71.6144 63.205 71.5451 63.1921C71.4758 63.1792 71.4043 63.1944 71.3461 63.2342L68.8209 64.9627V61.8991C68.8172 61.8311 68.7875 61.7671 68.7381 61.7203C68.6885 61.6735 68.6231 61.6475 68.555 61.6475C68.4869 61.6475 68.4214 61.6735 68.3719 61.7203C68.3224 61.7671 68.2927 61.8311 68.289 61.8991V64.9611L65.7638 63.2326C65.735 63.2128 65.7026 63.1988 65.6685 63.1916C65.6343 63.1843 65.5991 63.1838 65.5647 63.1902C65.5304 63.1966 65.4976 63.2096 65.4683 63.2286C65.439 63.2476 65.4138 63.2722 65.394 63.301C65.3742 63.3297 65.3602 63.3622 65.353 63.3963C65.3457 63.4304 65.3452 63.4657 65.3516 63.5001C65.358 63.5344 65.371 63.5671 65.3901 63.5964C65.409 63.6258 65.4336 63.651 65.4624 63.6708L68.0821 65.4629L65.4624 67.255C65.4161 67.2873 65.3813 67.3336 65.363 67.387C65.3447 67.4405 65.3439 67.4984 65.3606 67.5524C65.3774 67.6063 65.4109 67.6535 65.4563 67.6872C65.5017 67.7208 65.5565 67.7392 65.6131 67.7396C65.7312 67.7396 65.5447 67.8431 68.2866 65.9647V69.0234C68.2903 69.0914 68.3199 69.1554 68.3695 69.2022C68.4189 69.249 68.4844 69.2751 68.5525 69.2751C68.6206 69.2751 68.6861 69.249 68.7356 69.2022C68.7851 69.1554 68.8147 69.0914 68.8185 69.0234V65.9663C71.5661 67.8488 71.373 67.7413 71.4919 67.7413C71.549 67.7423 71.605 67.7249 71.6514 67.6916C71.6979 67.6584 71.7323 67.6109 71.7497 67.5565C71.7671 67.5021 71.7664 67.4435 71.748 67.3895C71.7294 67.3354 71.6939 67.2889 71.6467 67.2566Z" fill="black"/>
<path d="M71.6467 86.687L69.027 84.8949L71.6467 83.1029C71.7049 83.0629 71.7447 83.0017 71.7577 82.9324C71.7706 82.8631 71.7554 82.7915 71.7156 82.7334C71.6757 82.6753 71.6144 82.6354 71.5452 82.6225C71.4758 82.6096 71.4043 82.6248 71.3461 82.6646L68.8209 84.3932V81.3295C68.8172 81.2615 68.7875 81.1975 68.7381 81.1507C68.6886 81.104 68.6231 81.0779 68.555 81.0779C68.4869 81.0779 68.4214 81.104 68.3719 81.1507C68.3224 81.1975 68.2928 81.2615 68.289 81.3295V84.3883L65.7638 82.6597C65.7057 82.6197 65.6341 82.6045 65.5647 82.6174C65.4954 82.6302 65.434 82.67 65.394 82.7281C65.354 82.7862 65.3388 82.8578 65.3516 82.9272C65.3644 82.9966 65.4043 83.058 65.4624 83.098L68.0821 84.8901L65.4624 86.6821C65.4161 86.7147 65.3813 86.7612 65.363 86.8141C65.3447 86.8679 65.3439 86.9257 65.3607 86.9795C65.3775 87.0332 65.4109 87.0805 65.4563 87.1147C65.5017 87.1481 65.5566 87.166 65.6131 87.1668C65.7312 87.1668 65.5447 87.2703 68.2866 85.3918V88.4506C68.2903 88.5182 68.32 88.5826 68.3695 88.629C68.4189 88.6762 68.4844 88.7023 68.5525 88.7023C68.6206 88.7023 68.6861 88.6762 68.7357 88.629C68.7851 88.5826 68.8147 88.5182 68.8185 88.4506V85.3918C71.5661 87.2743 71.373 87.1668 71.492 87.1668C71.5478 87.166 71.602 87.1481 71.647 87.1155C71.692 87.0821 71.7254 87.0357 71.7426 86.9827C71.7597 86.9298 71.7596 86.8727 71.7424 86.8198C71.7253 86.766 71.6918 86.7196 71.6467 86.687Z" fill="black"/>
<path d="M80.897 67.2566L78.2773 65.4645L80.897 63.6724C80.9551 63.6326 80.995 63.5713 81.0079 63.502C81.0208 63.4327 81.0056 63.3611 80.9658 63.303C80.926 63.245 80.8646 63.205 80.7953 63.1921C80.7261 63.1792 80.6545 63.1944 80.5964 63.2342L78.0761 64.9611V61.8991C78.0761 61.8286 78.0481 61.7611 77.9983 61.7113C77.9485 61.6615 77.881 61.6335 77.8105 61.6335C77.7401 61.6335 77.6725 61.6615 77.6228 61.7113C77.5729 61.7611 77.545 61.8286 77.545 61.8991V64.9611L75.0198 63.2326C74.9617 63.1927 74.8901 63.1776 74.8208 63.1905C74.7515 63.2034 74.6902 63.2433 74.6504 63.3014C74.6105 63.3595 74.5954 63.4311 74.6082 63.5004C74.6212 63.5696 74.6611 63.631 74.7192 63.6708L77.3389 65.4629L74.7192 67.255C74.6728 67.2873 74.6381 67.3336 74.6198 67.3871C74.6015 67.4405 74.6007 67.4985 74.6174 67.5524C74.6342 67.6063 74.6677 67.6536 74.7131 67.6872C74.7584 67.7209 74.8134 67.7393 74.8699 67.7397C74.9872 67.7397 74.8015 67.8431 77.5433 65.9647V69.0234C77.5433 69.0939 77.5713 69.1614 77.6211 69.2112C77.6709 69.2611 77.7384 69.289 77.8089 69.289C77.8794 69.289 77.9469 69.2611 77.9967 69.2112C78.0465 69.1614 78.0745 69.0939 78.0745 69.0234V65.9663C80.822 67.8488 80.6298 67.7413 80.7479 67.7413C80.8043 67.7406 80.8589 67.7219 80.9041 67.6882C80.9492 67.6544 80.9824 67.6071 80.999 67.5533C81.0156 67.4994 81.0146 67.4416 80.9963 67.3883C80.978 67.3351 80.9432 67.2889 80.897 67.2566Z" fill="black"/>
<path d="M80.897 86.687L78.2773 84.8949L80.897 83.1029C80.9551 83.063 80.995 83.0017 81.0079 82.9325C81.0208 82.8631 81.0056 82.7915 80.9658 82.7335C80.926 82.6754 80.8646 82.6355 80.7954 82.6225C80.7261 82.6096 80.6545 82.6248 80.5964 82.6646L78.0712 84.3932V81.3295C78.0712 81.2591 78.0432 81.1915 77.9934 81.1418C77.9436 81.0919 77.8761 81.064 77.8056 81.064C77.7352 81.064 77.6676 81.0919 77.6179 81.1418C77.568 81.1915 77.5401 81.2591 77.5401 81.3295V84.3883L75.0149 82.6597C74.9861 82.64 74.9537 82.6261 74.9196 82.6189C74.8854 82.6117 74.8502 82.6113 74.816 82.6176C74.7816 82.6241 74.7489 82.6371 74.7197 82.6562C74.6904 82.6752 74.6652 82.6998 74.6455 82.7286C74.6257 82.7573 74.6118 82.7897 74.6047 82.8239C74.5974 82.858 74.597 82.8932 74.6033 82.9275C74.6098 82.9619 74.6228 82.9945 74.6419 83.0238C74.6609 83.053 74.6855 83.0783 74.7143 83.098L77.334 84.8901L74.7143 86.6822C74.668 86.7147 74.6332 86.7612 74.6149 86.8141C74.5966 86.8679 74.5958 86.9257 74.6125 86.9795C74.6293 87.0332 74.6628 87.0805 74.7082 87.1147C74.7536 87.1481 74.8085 87.1668 74.865 87.1668C74.9823 87.1668 74.7966 87.2703 77.5385 85.3918V88.4506C77.5385 88.5207 77.5664 88.5883 77.6162 88.6388C77.666 88.6885 77.7335 88.7162 77.804 88.7162C77.8745 88.7162 77.942 88.6885 77.9918 88.6388C78.0416 88.5883 78.0696 88.5207 78.0696 88.4506V85.3918C80.8171 87.2744 80.6249 87.1668 80.743 87.1668C80.7985 87.166 80.8523 87.1473 80.8968 87.1139C80.9413 87.0813 80.9744 87.0349 80.9913 86.9819C81.0083 86.929 81.0083 86.8719 80.9914 86.819C80.9744 86.7669 80.9415 86.7204 80.897 86.687Z" fill="black"/>
<path d="M90.1474 67.2566L87.5277 65.4645L90.1474 63.6724C90.1759 63.6527 90.2012 63.6275 90.2199 63.5982C90.2387 63.569 90.2517 63.5362 90.2582 63.5019C90.2647 63.4676 90.2639 63.4325 90.2574 63.3983C90.2501 63.3642 90.2362 63.3318 90.2167 63.303C90.1963 63.2743 90.1711 63.2497 90.1417 63.2306C90.1132 63.2115 90.0798 63.1985 90.0456 63.1921C90.0114 63.1857 89.9764 63.1861 89.9422 63.1934C89.9079 63.2005 89.8754 63.2145 89.8469 63.2342L87.3216 64.9627V61.8991C87.3176 61.8311 87.2882 61.7671 87.2386 61.7203C87.1897 61.6735 87.1237 61.6475 87.0553 61.6475C86.9877 61.6475 86.9217 61.6735 86.8728 61.7203C86.8231 61.7671 86.7938 61.8311 86.7897 61.8991V64.9611L84.2645 63.2326C84.2358 63.2128 84.2033 63.1988 84.1692 63.1916C84.135 63.1843 84.0998 63.1838 84.0654 63.1902C84.0311 63.1966 83.9983 63.2096 83.9691 63.2286C83.9397 63.2476 83.9145 63.2722 83.8947 63.301C83.8749 63.3297 83.861 63.3622 83.8537 63.3963C83.8465 63.4304 83.846 63.4657 83.8523 63.5001C83.8587 63.5344 83.8717 63.5671 83.8907 63.5964C83.9098 63.6258 83.9344 63.651 83.9631 63.6708L86.5828 65.4629L83.9631 67.255C83.9168 67.2873 83.882 67.3336 83.8637 67.387C83.8454 67.4405 83.8446 67.4984 83.8614 67.5524C83.8782 67.6063 83.9116 67.6535 83.957 67.6872C84.0024 67.7208 84.0573 67.7392 84.1138 67.7396C84.2311 67.7396 84.0454 67.8431 86.7873 65.9647V69.0234C86.7913 69.0914 86.8207 69.1554 86.8704 69.2022C86.9192 69.249 86.9852 69.2751 87.0536 69.2751C87.1213 69.2751 87.1872 69.249 87.2361 69.2022C87.2858 69.1554 87.3151 69.0914 87.3192 69.0234V65.9663C90.0668 67.8488 89.8737 67.7413 89.9927 67.7413C90.0497 67.7423 90.1059 67.7249 90.1523 67.6916C90.1988 67.6584 90.233 67.6109 90.2501 67.5565C90.268 67.5021 90.2672 67.4435 90.2484 67.3895C90.2297 67.3354 90.1947 67.2889 90.1474 67.2566Z" fill="black"/>
<path d="M90.1475 86.687L87.5278 84.8949L90.1475 83.1029C90.176 83.0831 90.2012 83.0579 90.22 83.0286C90.2387 82.9994 90.2517 82.9667 90.2582 82.9324C90.2648 82.8981 90.264 82.8629 90.2574 82.8287C90.2501 82.7946 90.2362 82.7622 90.2167 82.7334C90.1963 82.7047 90.1711 82.6801 90.1418 82.661C90.1132 82.642 90.0799 82.6289 90.0456 82.6225C90.0114 82.6161 89.9764 82.6166 89.9422 82.6238C89.908 82.631 89.8754 82.6449 89.8469 82.6646L87.3217 84.3932V81.3295C87.3176 81.2615 87.2883 81.1975 87.2386 81.1507C87.1897 81.104 87.1237 81.0779 87.0561 81.0779C86.9877 81.0779 86.9217 81.104 86.8728 81.1507C86.8231 81.1975 86.7938 81.2615 86.7897 81.3295V84.3883L84.2645 82.6597C84.2065 82.6197 84.1348 82.6045 84.0655 82.6174C83.9961 82.6302 83.9347 82.67 83.8947 82.7281C83.8547 82.7862 83.8395 82.8578 83.8524 82.9272C83.8652 82.9966 83.9051 83.058 83.9631 83.098L86.5828 84.8901L83.9631 86.6821C83.9168 86.7147 83.882 86.7612 83.8638 86.8141C83.8454 86.8679 83.8446 86.9257 83.8614 86.9795C83.8782 87.0332 83.9117 87.0805 83.957 87.1147C84.0024 87.1481 84.0573 87.166 84.1138 87.1668C84.2311 87.1668 84.0454 87.2703 86.7873 85.3918V88.4506C86.7914 88.5182 86.8207 88.5826 86.8704 88.629C86.9193 88.6762 86.9853 88.7023 87.0537 88.7023C87.1213 88.7023 87.1873 88.6762 87.2361 88.629C87.2858 88.5826 87.3152 88.5182 87.3192 88.4506V85.3918C90.0668 87.2743 89.8738 87.1668 89.9927 87.1668C90.0489 87.166 90.1027 87.1481 90.1475 87.1155C90.1931 87.0821 90.2265 87.0357 90.2436 86.9827C90.2607 86.9298 90.2607 86.8727 90.2436 86.8198C90.2257 86.766 90.1923 86.7196 90.1475 86.687Z" fill="black"/>
<path d="M99.3986 67.2566L96.7789 65.4645L99.3986 63.6724C99.4564 63.6326 99.4964 63.5713 99.5094 63.502C99.5224 63.4327 99.5069 63.3611 99.4678 63.303C99.4279 63.245 99.366 63.205 99.2968 63.1921C99.2275 63.1792 99.1559 63.1944 99.098 63.2342L96.5728 64.9627V61.8991C96.5728 61.8286 96.5451 61.7611 96.4954 61.7113C96.4449 61.6615 96.3773 61.6335 96.3073 61.6335C96.2372 61.6335 96.1696 61.6615 96.1191 61.7113C96.0694 61.7611 96.0417 61.8286 96.0417 61.8991V64.9611L93.5165 63.2326C93.4587 63.1927 93.387 63.1776 93.3177 63.1905C93.2485 63.2034 93.1866 63.2433 93.1475 63.3014C93.1076 63.3595 93.0921 63.4311 93.1051 63.5004C93.1182 63.5696 93.1581 63.631 93.2159 63.6708L95.8356 65.4629L93.2159 67.255C93.1695 67.287 93.1336 67.3332 93.1149 67.3867C93.0962 67.4403 93.0954 67.4984 93.1125 67.5526C93.1288 67.6067 93.163 67.6541 93.2086 67.6878C93.2542 67.7215 93.3088 67.7397 93.3658 67.7397C93.4839 67.7397 93.2982 67.8431 96.0401 65.9647V69.0234C96.0401 69.0939 96.0678 69.1614 96.1175 69.2112C96.168 69.2611 96.2356 69.289 96.3056 69.289C96.3757 69.289 96.4433 69.2611 96.4938 69.2112C96.5435 69.1614 96.5712 69.0939 96.5712 69.0234V65.9663C99.3188 67.8488 99.1265 67.7413 99.2447 67.7413C99.3017 67.7416 99.3571 67.7237 99.4027 67.6903C99.4483 67.6569 99.4825 67.6097 99.4996 67.5556C99.5167 67.5015 99.5167 67.4432 99.498 67.3895C99.4801 67.3357 99.445 67.2891 99.3986 67.2566Z" fill="black"/>
<path d="M99.4687 88.7373H93.5899C93.5223 88.7333 93.4587 88.7039 93.4115 88.655C93.3651 88.6054 93.339 88.5402 93.339 88.4718C93.339 88.4042 93.3651 88.339 93.4115 88.2893C93.4587 88.2404 93.5223 88.2111 93.5899 88.207H99.4687C99.5363 88.2111 99.5999 88.2404 99.6471 88.2893C99.6936 88.339 99.7196 88.4042 99.7196 88.4718C99.7196 88.5402 99.6936 88.6054 99.6471 88.655C99.5999 88.7039 99.5363 88.7333 99.4687 88.7373Z" fill="black"/>
<path fill-rule="evenodd" clip-rule="evenodd" d="M49.8719 105.928C51.5418 103.763 52.222 101.884 54.0108 102.171C55.8232 102.462 57.731 105.543 56.1784 109.331C54.6258 113.119 54.2959 112.915 53.355 116.167C52.704 118.618 52.2166 121.109 51.8961 123.624C54.1319 126.128 56.1264 128.838 57.8532 131.717L67.9711 131.799C71.4388 139.471 67.493 150.26 67.493 150.26C68.4216 159.511 68.3939 159.36 68.4452 159.515C61.3016 162.486 53.4118 163.167 45.865 161.463C45.865 161.463 46.8881 155.415 46.9557 152.535C47.0233 149.654 42.6726 137.646 41.2194 134.421C39.7662 131.196 36.9086 126.392 37.623 122.309C38.3374 118.225 42.1708 112.894 42.1708 112.894C42.1708 112.894 44.5812 109.061 46.1533 106.769C47.1354 105.361 48.3743 104.149 49.8051 103.199L49.8719 105.928Z" fill="#FFD997"/>
<path d="M67.7626 150.29C68.0689 149.417 71.552 139.077 68.2122 131.687C68.1916 131.641 68.1581 131.601 68.1159 131.574C68.0735 131.546 68.0241 131.531 67.9736 131.531L57.9892 131.449C56.2909 128.642 54.345 125.992 52.1747 123.531C52.4922 121.071 52.9719 118.634 53.6108 116.237C54.5427 113.013 54.8636 113.233 56.4244 109.428C58.034 105.499 56.0578 102.227 54.0531 101.905C52.2611 101.617 51.4636 103.265 50.1187 105.145L50.0715 103.19C50.0704 103.142 50.0569 103.097 50.0324 103.057C50.0078 103.017 49.9731 102.984 49.9318 102.962C49.8904 102.939 49.8438 102.928 49.7969 102.93C49.7499 102.931 49.7041 102.944 49.6642 102.97C48.1995 103.937 46.9329 105.174 45.9326 106.616C44.3751 108.886 41.968 112.711 41.9525 112.736C41.7953 112.956 38.0759 118.163 37.3599 122.26C36.7489 125.75 38.6412 129.664 40.162 132.809C42.4893 137.625 46.7537 149.748 46.6885 152.522C46.6217 155.35 45.6108 161.351 45.601 161.412C45.5934 161.48 45.612 161.547 45.6529 161.602C45.6938 161.656 45.7539 161.692 45.8209 161.704C45.8878 161.715 45.9566 161.7 46.013 161.662C46.0693 161.625 46.1091 161.566 46.124 161.5C46.1346 161.44 47.1512 155.401 47.2196 152.535C47.2888 149.563 42.8371 137.364 41.4589 134.306C39.9454 130.945 37.188 126.313 37.8828 122.348C38.5777 118.382 42.3468 113.096 42.3924 113.029C42.4176 112.991 44.819 109.174 46.37 106.912C47.2428 105.668 48.3164 104.578 49.5469 103.687L49.599 105.836C48.656 107.043 47.8323 108.339 47.1398 109.705C46.1362 111.573 46.4498 110.82 45.5163 112.68C44.3286 115.042 43.8513 116.013 39.7539 119.671C39.7044 119.718 39.6751 119.783 39.6719 119.851C39.6687 119.92 39.692 119.986 39.737 120.038C39.7819 120.089 39.845 120.122 39.9131 120.128C39.9812 120.134 40.0491 120.113 40.1026 120.071C41.423 118.914 42.6758 117.681 43.8546 116.38C44.7076 115.319 45.4251 114.156 45.9904 112.917C46.9141 111.079 46.5981 111.833 47.6082 109.957C48.3133 108.565 49.1563 107.248 50.1244 106.024C50.2271 106.579 50.5019 107.088 50.9098 107.478C51.3178 107.868 51.838 108.119 52.3971 108.198C53.957 108.361 55.473 106.582 56.3364 105.265C57.1461 108.738 54.5289 111.14 53.0952 116.087C52.4418 118.552 51.952 121.057 51.6289 123.586C51.6244 123.624 51.6282 123.663 51.6402 123.7C51.6521 123.737 51.6719 123.771 51.6982 123.799C51.7886 123.897 60.8215 133.677 62.2878 143.855C62.2927 143.889 62.3045 143.923 62.3222 143.953C62.34 143.982 62.3635 144.008 62.3914 144.03C62.4192 144.051 62.4509 144.065 62.4846 144.074C62.5184 144.083 62.5535 144.085 62.5879 144.08C62.6224 144.074 62.6556 144.063 62.6854 144.045C62.7153 144.027 62.7415 144.004 62.7623 143.976C62.7832 143.948 62.7983 143.916 62.8069 143.883C62.8155 143.849 62.8173 143.814 62.8124 143.779C62.0684 139.597 60.5373 135.592 58.3004 131.98L67.7911 132.054C71.0494 139.53 67.2755 150.057 67.2372 150.162C67.2038 150.249 67.2176 150.162 68.1511 159.529C68.1583 159.6 68.1929 159.664 68.2476 159.709C68.3022 159.753 68.3722 159.774 68.4424 159.767C68.5125 159.76 68.5768 159.725 68.6214 159.67C68.666 159.616 68.687 159.546 68.6798 159.476L67.7626 150.29ZM52.4598 107.674C50.8909 107.505 50.6091 105.854 50.5626 105.441C51.8415 103.649 52.5315 102.202 53.9684 102.433C54.4795 102.588 54.9445 102.868 55.3223 103.245C55.7001 103.623 55.9793 104.088 56.1352 104.599C55.7955 105.161 54.0841 107.843 52.4598 107.674Z" fill="black"/>
<path fill-rule="evenodd" clip-rule="evenodd" d="M147.421 153.949C144.595 162.05 128.265 162.385 128.265 162.385C126.574 160.848 124.643 159.6 122.547 158.687C119.371 157.4 110.584 151.879 106.934 147.97C101.841 142.518 103.927 140.707 99.4223 131.244C98.5409 129.394 95.7566 123.482 97.7564 121.828C99.7562 120.174 103.362 119.963 107.865 130.428C107.865 130.428 107.159 125.77 106.585 123.125C106.011 120.48 103.032 115.278 102.006 111.707C100.98 108.136 100.142 107.386 99.3636 104.769C98.5857 102.153 97.4982 96.7788 99.3538 94.5102C101.209 92.2416 103.677 93.5238 104.717 96.6379C105.757 99.7521 106.916 104.525 108.446 106.429C111.159 109.801 112.32 114.828 113.994 116.774C113.994 116.774 117.096 116.471 118.514 116.286C119.931 116.1 123.246 115.255 125.557 117.665C125.557 117.665 129.334 118.795 130.49 120.533C130.49 120.533 131.95 120.816 133.534 123.853C135.117 126.891 144.31 150.69 147.421 153.949Z" fill="#FFD997"/>
<path d="M147.612 153.765C144.544 150.551 135.361 126.789 133.769 123.733C132.377 121.064 131.047 120.439 130.654 120.307C129.48 118.665 126.225 117.598 125.7 117.433C123.541 115.234 120.58 115.701 118.981 115.95C117.941 116.113 115.358 116.374 114.112 116.497C113.417 115.513 112.844 114.447 112.407 113.325C108.129 103.031 108.985 109.675 105.733 98.9938C105.47 98.1279 105.216 97.2937 104.969 96.55C103.897 93.3397 101.193 91.8377 99.1485 94.3376C96.9418 97.0355 98.7282 103.56 99.1086 104.841C99.849 107.331 100.772 108.369 101.75 111.776C102.788 115.386 105.759 120.562 106.327 123.18C106.658 124.709 107.038 126.936 107.296 128.525C105.101 123.926 102.897 121.333 100.734 120.81C100.183 120.683 99.6096 120.69 99.0613 120.832C98.5139 120.974 98.0081 121.246 97.5878 121.625C96.1215 122.837 96.6396 126.023 99.1827 131.36C103.638 140.728 101.596 142.648 106.739 148.152C110.505 152.184 119.42 157.707 122.448 158.935C124.511 159.837 126.414 161.068 128.083 162.58C128.135 162.625 128.202 162.649 128.271 162.645C128.339 162.642 128.403 162.613 128.451 162.563C128.498 162.513 128.524 162.447 128.524 162.378C128.523 162.31 128.496 162.244 128.448 162.195C126.735 160.632 124.775 159.364 122.647 158.443C119.656 157.23 110.847 151.772 107.127 147.79C102.139 142.45 104.151 140.562 99.6617 131.132C98.0659 127.782 97.4387 125.611 97.3295 124.208C98.0456 125.519 99.3212 127.298 100.751 126.876C102.909 126.235 102.716 123.944 101.838 121.879C103.317 122.839 105.265 125.13 107.504 130.257C108.407 132.098 109.044 134.058 109.397 136.077C109.632 138.291 109.249 139.124 109.238 139.145C109.222 139.176 109.212 139.21 109.209 139.244C109.206 139.279 109.21 139.314 109.221 139.347C109.231 139.381 109.249 139.412 109.271 139.439C109.293 139.465 109.321 139.487 109.352 139.503C109.383 139.519 109.417 139.529 109.451 139.532C109.486 139.535 109.521 139.531 109.555 139.52C109.588 139.51 109.619 139.492 109.646 139.47C109.672 139.448 109.694 139.42 109.71 139.389C109.73 139.351 110.183 138.446 109.925 136.022C109.587 134.058 108.981 132.15 108.125 130.35C108.055 129.893 107.392 125.565 106.848 123.07C106.288 121.178 105.56 119.339 104.674 117.575C101.421 110.419 102.707 111.881 100.716 107.506C100.28 106.598 99.9142 105.659 99.621 104.695C98.6263 101.346 98.0073 96.7863 99.476 94.7913C99.7203 96.0906 100.501 99.1445 102.417 99.1445C103.34 99.1445 104.227 98.5417 104.587 97.0852C105.589 100.181 106.727 104.716 108.243 106.597C111.086 110.132 112.092 115.304 114.064 117.209C119.863 122.811 119.184 123.61 119.693 123.61C119.739 123.61 119.783 123.598 119.823 123.576C119.862 123.554 119.895 123.523 119.919 123.483C119.942 123.445 119.956 123.401 119.958 123.356C119.96 123.311 119.951 123.266 119.93 123.225C118.969 121.319 115.756 118.11 114.595 116.984C115.966 116.847 118.049 116.635 119.067 116.476C120.688 116.222 123.399 115.799 125.368 117.853C125.4 117.886 125.439 117.91 125.483 117.924C125.521 117.934 129.182 119.046 130.271 120.684C130.31 120.741 130.367 120.781 130.434 120.797C130.449 120.797 131.811 121.128 133.297 123.98C134.873 127.003 144.074 150.831 147.227 154.134C147.276 154.185 147.343 154.214 147.413 154.216C147.484 154.218 147.553 154.191 147.604 154.142C147.655 154.093 147.685 154.025 147.686 153.955C147.688 153.884 147.661 153.816 147.612 153.765ZM100.596 126.367C99.2748 126.761 97.8476 124.2 97.3694 123.092C97.4216 122.683 97.6187 122.307 97.925 122.033C98.3388 121.65 98.8536 121.393 99.4083 121.294C99.9623 121.194 100.534 121.255 101.055 121.47C101.995 123.292 102.605 125.772 100.596 126.367ZM102.424 98.6109C100.88 98.6109 100.119 95.6222 99.9248 94.2863C101.521 92.8062 103.27 93.9873 104.188 96.014C104.015 97.2856 103.754 98.6109 102.424 98.6109Z" fill="black"/>
<path d="M28.9453 148.006C24.8105 144.076 5.18473 122.544 17.2072 90.7354L20.6414 91.8758C20.6765 91.8872 20.7136 91.8913 20.7504 91.8881C20.7871 91.8848 20.8228 91.8734 20.855 91.8555C20.8871 91.8367 20.9152 91.8123 20.9374 91.783C20.9595 91.7536 20.9753 91.7194 20.9836 91.6836L23.6342 80.18C23.6457 80.1299 23.6425 80.0777 23.6249 80.0295C23.6073 79.9813 23.5761 79.9392 23.535 79.9083C23.494 79.8774 23.4449 79.8592 23.3937 79.8556C23.3425 79.8521 23.2914 79.8635 23.2465 79.8884C19.0098 82.2952 14.9634 85.0227 11.1426 88.0465C11.1066 88.0758 11.0791 88.1149 11.0628 88.1589C11.0465 88.2021 11.042 88.2493 11.0498 88.2957C11.0576 88.3414 11.0773 88.3845 11.107 88.4204C11.1368 88.4562 11.1754 88.4839 11.2192 88.5002L13.8315 89.4696C6.12639 114.07 10.0845 133.502 26.3403 150.549C28.055 152.347 30.7203 149.693 28.9453 148.006Z" fill="black"/>
<path d="M158.134 72.659C158.023 72.4725 158.03 72.5279 155.116 72.5645C153.447 46.8384 142.761 30.1337 121.458 20.0842C121.193 19.9597 120.902 19.9 120.61 19.9099C120.316 19.9198 120.03 19.9991 119.775 20.1412C119.475 20.3035 119.227 20.5474 119.06 20.8447C118.893 21.1419 118.814 21.4804 118.831 21.8209C118.849 22.1614 118.963 22.4899 119.16 22.7684C119.356 23.0469 119.627 23.2641 119.942 23.3946C125.183 25.6486 151.275 38.5948 151.511 72.6004L147.897 72.7731C147.861 72.7749 147.824 72.7846 147.791 72.8012C147.758 72.8177 147.729 72.841 147.706 72.8695C147.682 72.898 147.664 72.9311 147.655 72.9667C147.645 73.0022 147.642 73.0395 147.647 73.0761L149.316 84.7621C149.323 84.8129 149.344 84.8607 149.378 84.8994C149.412 84.9382 149.456 84.9663 149.505 84.9804C149.554 84.9944 149.607 84.9939 149.656 84.9787C149.705 84.9635 149.749 84.9344 149.781 84.8949C152.868 81.1243 155.661 77.1228 158.137 72.9254C158.16 72.8847 158.172 72.8386 158.172 72.7919C158.171 72.745 158.158 72.6992 158.134 72.659Z" fill="black"/>
<path fill-rule="evenodd" clip-rule="evenodd" d="M68.2252 28.4817L66.4144 30.2249C65.9132 30.1665 65.442 29.9554 65.0648 29.6203C64.6875 29.2852 64.4225 28.8422 64.3054 28.3514L75.0946 17.282C75.6151 17.3608 76.1067 17.572 76.5223 17.8952C76.9379 18.2183 77.2636 18.6427 77.4683 19.1278L73.0907 23.6154L74.3997 25.1093L73.2593 26.2228L71.824 24.9586L71.042 25.8204L73.2463 28.3457L70.6836 30.8611L68.2252 28.4817Z" fill="white"/>
<path d="M77.7095 19.0187C77.4871 18.4948 77.1347 18.0364 76.6857 17.6867C76.2367 17.337 75.7059 17.1077 75.1435 17.0205C75.1007 17.012 75.0563 17.0146 75.0147 17.028C74.9731 17.0414 74.9356 17.0652 74.9057 17.0971L64.1149 28.1648C64.0821 28.1985 64.0589 28.2404 64.0476 28.286C64.0363 28.3317 64.0373 28.3795 64.0505 28.4247C64.1813 28.964 64.4737 29.4506 64.8886 29.8192C65.3035 30.1878 65.8211 30.4209 66.3721 30.4872C66.5546 30.5165 66.4959 30.5149 68.2245 28.8507L70.5012 31.0501C70.5509 31.0982 70.6174 31.1251 70.6865 31.1251C70.7557 31.1251 70.8222 31.0982 70.8719 31.0501L73.4329 28.5363C73.4813 28.4888 73.5096 28.4246 73.512 28.3568C73.5145 28.2891 73.4908 28.223 73.446 28.1721L71.3981 25.8237L71.8445 25.3309L73.0835 26.4224C73.1336 26.467 73.1988 26.4907 73.2658 26.4889C73.3328 26.4871 73.3967 26.4598 73.4443 26.4126L74.5847 25.2991C74.6334 25.2517 74.662 25.1874 74.6646 25.1194C74.6673 25.0515 74.6435 24.9852 74.5986 24.9342L73.4517 23.6251L77.6573 19.3127C77.6947 19.2747 77.7195 19.2262 77.7289 19.1738C77.7382 19.1213 77.7314 19.0673 77.7095 19.0187ZM72.9034 23.4321C72.8568 23.4799 72.83 23.5436 72.8283 23.6104C72.8266 23.6771 72.8502 23.7421 72.8945 23.7921L74.0349 25.0955L73.2521 25.8612L72.0025 24.7599C71.95 24.7141 71.8818 24.6906 71.8122 24.6944C71.7427 24.6982 71.6774 24.729 71.6302 24.7802L70.8482 25.6421C70.8049 25.6906 70.781 25.7534 70.781 25.8184C70.781 25.8835 70.8049 25.9463 70.8482 25.9948L72.8847 28.3326L70.6853 30.4904L68.6098 28.4833L70.1746 27.0016C70.2258 26.9532 70.2556 26.8865 70.2577 26.816C70.2596 26.7456 70.2336 26.6773 70.1852 26.6261C70.1368 26.5749 70.07 26.545 69.9996 26.5431C69.9292 26.541 69.8609 26.5671 69.8097 26.6155L66.8348 29.4551C66.795 29.0304 66.6013 28.6348 66.2901 28.343C65.9789 28.0512 65.5718 27.8832 65.1453 27.8708L75.1835 17.5712C75.6053 17.6518 76.0026 17.8298 76.3435 18.0909C76.6845 18.3522 76.9597 18.6893 77.1474 19.0757L72.9034 23.4321Z" fill="black"/>
<path d="M81.2147 15.5209C81.0192 15.5209 81.3459 15.8752 77.2526 10.1699C77.2146 10.1125 77.2004 10.0427 77.2129 9.97509C77.2255 9.90748 77.2637 9.84736 77.3196 9.80736C77.3755 9.76737 77.4448 9.75063 77.5128 9.76065C77.5809 9.77069 77.6423 9.80671 77.6843 9.86115L81.4314 15.1013C81.4597 15.1411 81.4764 15.1879 81.4799 15.2365C81.4834 15.2852 81.4733 15.3338 81.4509 15.3772C81.4286 15.4205 81.3947 15.4568 81.353 15.4822C81.3113 15.5076 81.2635 15.5209 81.2147 15.5209Z" fill="black"/>
<path d="M85.9522 15.5209C85.9009 15.5209 85.8504 15.506 85.808 15.478C85.7649 15.45 85.7306 15.4102 85.7103 15.3633C85.6891 15.3165 85.6826 15.2645 85.6899 15.2138C85.6981 15.1632 85.7209 15.1159 85.7551 15.0778L91.2608 8.96273C91.3089 8.91381 91.3741 8.88531 91.4425 8.88319C91.5109 8.88105 91.5777 8.90546 91.6282 8.95131C91.6787 8.99715 91.7105 9.06089 91.7154 9.1292C91.7203 9.19751 91.6991 9.26512 91.6551 9.31789C86.0214 15.5845 86.1404 15.5209 85.9522 15.5209Z" fill="black"/>
<path d="M83.3179 13.2922L83.278 7.61455C83.278 7.54412 83.3059 7.47658 83.3557 7.42678C83.4055 7.37698 83.473 7.349 83.5435 7.349C83.614 7.349 83.6815 7.37698 83.7313 7.42678C83.7811 7.47658 83.8091 7.54412 83.8091 7.61455L83.849 13.2897C83.8493 13.3602 83.8216 13.4278 83.7721 13.4779C83.7225 13.5279 83.6551 13.5562 83.5846 13.5565C83.5142 13.5568 83.4466 13.5292 83.3965 13.4796C83.3465 13.43 83.3182 13.3627 83.3179 13.2922Z" fill="black"/>
<path fill-rule="evenodd" clip-rule="evenodd" d="M90.0912 19.5311L95.9659 24.404L93.9295 26.8477L88.3439 22.2502L90.0912 19.5311Z" fill="white"/>
<path d="M96.0091 24.0944L90.4341 19.4709C89.6546 18.4233 87.0031 21.6083 88.0319 22.4563L93.5141 27.0033C91.9167 29.5684 91.6405 32.1393 92.9585 33.1526C95.4023 35.0261 100.72 30.291 101.568 25.9289C102.269 22.3048 99.3253 21.3053 96.0091 24.0944ZM99.1135 26.6742C98.1792 29.8201 93.7373 33.028 94.683 29.8511C95.6051 26.7239 100.057 23.4811 99.1135 26.6742ZM88.7903 22.3952C89.6057 21.9013 90.2158 21.1296 90.5074 20.2219L95.6067 24.4512C94.9306 25.0842 94.327 25.7902 93.8065 26.5561L88.7903 22.3952Z" fill="black"/>
<path fill-rule="evenodd" clip-rule="evenodd" d="M150.071 115.378L140.026 104.846L133.809 106.062L128.583 100.197L138.969 90.8552L144.37 96.8603L142.425 102.672L159.655 120.667C159.559 122.336 158.722 123.029 157.344 123.007L156.457 122.077L154.394 124.048L152.615 122.184L154.679 120.213L153.243 118.707L149.874 121.926L146.697 118.602L150.071 115.378Z" fill="#F7CA00"/>
<path d="M133.86 104.462C133.68 104.462 133.942 104.716 130.387 100.369C130.343 100.316 130.322 100.247 130.328 100.179C130.333 100.111 130.365 100.047 130.417 100.001L135.945 95.1481C135.998 95.1033 136.067 95.0805 136.136 95.0854C136.206 95.0903 136.271 95.1228 136.316 95.175C136.363 95.2279 136.386 95.2963 136.382 95.3656C136.378 95.4348 136.347 95.5008 136.295 95.5472L130.96 100.231L134.066 104.028C134.097 104.067 134.118 104.114 134.124 104.164C134.13 104.214 134.122 104.264 134.101 104.31C134.079 104.355 134.045 104.394 134.003 104.42C133.96 104.448 133.911 104.462 133.86 104.462Z" fill="black"/>
<path d="M159.847 120.48L142.727 102.602C144.783 96.4579 144.713 96.844 144.567 96.6803L139.167 90.6752C139.144 90.6491 139.115 90.628 139.084 90.6133C139.053 90.5978 139.018 90.5888 138.983 90.5872C138.948 90.5856 138.914 90.5905 138.881 90.6019C138.848 90.6133 138.818 90.6312 138.792 90.6548L128.405 99.9965C128.379 100.019 128.358 100.048 128.343 100.079C128.328 100.111 128.32 100.145 128.317 100.179C128.316 100.214 128.32 100.249 128.332 100.282C128.344 100.314 128.362 100.344 128.385 100.37C134.017 106.695 133.637 106.362 133.86 106.323L139.934 105.134L149.696 115.37L146.519 118.408C146.494 118.431 146.473 118.461 146.46 118.492C146.445 118.524 146.438 118.558 146.437 118.593C146.436 118.628 146.442 118.663 146.455 118.696C146.467 118.729 146.486 118.758 146.51 118.783C149.972 122.401 149.715 122.187 149.87 122.189C150.025 122.191 149.789 122.376 153.237 119.08L154.306 120.201L152.433 121.993C152.408 122.017 152.387 122.046 152.373 122.078C152.359 122.11 152.351 122.145 152.351 122.179C152.35 122.214 152.356 122.249 152.369 122.282C152.382 122.314 152.4 122.344 152.425 122.369C154.336 124.371 154.235 124.313 154.396 124.313C154.544 124.313 154.421 124.395 156.45 122.454C157.25 123.292 157.175 123.274 157.407 123.274C158.954 123.274 159.824 122.378 159.922 120.682C159.925 120.645 159.919 120.608 159.906 120.573C159.893 120.539 159.873 120.507 159.847 120.48ZM154.403 123.67L152.99 122.191L154.609 120.643L156.021 122.121L154.403 123.67ZM139.904 104.6L133.908 105.773L128.958 100.215L138.951 91.2275L144.071 96.9206L142.198 102.518L139.904 104.6ZM140.406 104.86L142.414 103.039L143.202 103.862L141.157 105.646L140.406 104.86ZM149.884 121.548L147.076 118.608L150.064 115.757L152.87 118.699L149.884 121.548ZM157.46 122.74L141.524 106.031L143.569 104.246L159.382 120.76C159.275 122.09 158.663 122.723 157.46 122.74Z" fill="black"/>
<path fill-rule="evenodd" clip-rule="evenodd" d="M34.1577 48.7673L30.7438 46.7797C30.7438 46.7797 33.6673 40.953 34.0974 38.4221C34.5275 35.8912 32.6361 34.7426 30.0612 33.9916C29.3986 33.7519 28.6694 33.7753 28.0235 34.0568C27.3776 34.3383 26.8641 34.8566 26.5886 35.5051L23.9005 41.1673L19.3176 39.2546C19.3176 39.2546 22.6859 33.0011 24.3208 31.2994C28.7929 26.6432 38.5589 31.9242 38.1874 38.335C37.9586 42.245 34.1577 48.7673 34.1577 48.7673Z" fill="white"/>
<path fill-rule="evenodd" clip-rule="evenodd" d="M16.6849 42.1154C16.6849 42.1154 25.2478 42.1015 35.3747 49.9125L29.1839 63.3401C29.1839 63.3401 27.949 65.0426 24.7509 64.7086C21.5529 64.3747 14.4937 61.6458 11.2712 58.7565C8.04873 55.8672 16.6849 42.1154 16.6849 42.1154Z" fill="#F7CA00"/>
<path d="M26.9789 63.9332C22.0954 61.0482 16.8743 58.7774 11.4342 57.1721C11.3684 57.1516 11.3132 57.1062 11.2802 57.0457C11.2472 56.9852 11.239 56.9142 11.2574 56.8478C11.2759 56.7813 11.3194 56.7246 11.3788 56.6897C11.4383 56.6548 11.509 56.6443 11.576 56.6606C17.0597 58.2787 22.3228 60.5674 27.2461 63.4746C27.3006 63.5129 27.3387 63.5704 27.353 63.6355C27.3671 63.7007 27.3565 63.7688 27.3228 63.8265C27.2893 63.8841 27.2353 63.927 27.1716 63.9467C27.1079 63.9665 27.0392 63.9617 26.9789 63.9332Z" fill="black"/>
<path d="M24.549 48.7876C24.1694 48.5552 23.7214 48.4603 23.2802 48.5186C22.8389 48.5768 22.431 48.785 22.1248 49.1079C21.8186 49.431 21.6326 49.8494 21.5979 50.2931C21.5632 50.7369 21.6819 51.179 21.9341 51.5457L20.3791 55.2114C20.3654 55.2435 20.3582 55.2779 20.3579 55.3128C20.3576 55.3477 20.3642 55.3823 20.3773 55.4145C20.3903 55.4469 20.4097 55.4763 20.4342 55.5011C20.4587 55.526 20.4878 55.5457 20.52 55.5592C20.9957 55.8116 21.4953 56.0159 22.0115 56.1693C22.0637 56.1692 22.1148 56.1537 22.1583 56.1247C22.2017 56.0958 22.2357 56.0545 22.2559 56.0064L23.8036 52.366C24.1991 52.3096 24.5675 52.1326 24.8589 51.8592C25.1502 51.5858 25.3502 51.2294 25.4316 50.8383C25.5131 50.4472 25.472 50.0405 25.3141 49.6735C25.1561 49.3066 24.889 48.9972 24.549 48.7876Z" fill="black"/>
<path d="M24.1262 31.1152C22.4865 32.8259 19.22 38.8717 19.0815 39.1291C18.4201 40.3583 23.5438 42.6783 24.1319 41.2861L26.8388 35.6028C27.0852 35.0117 27.5518 34.5397 28.14 34.2866C28.7282 34.0335 29.3918 34.0191 29.9904 34.2465C33.0288 35.1328 34.1798 36.3644 33.8385 38.3773C33.4711 40.5465 31.1911 45.276 30.6331 46.4123C22.8025 41.9077 16.773 41.8506 16.6882 41.8506C16.6434 41.8506 16.5992 41.862 16.56 41.8837C16.5206 41.9053 16.4875 41.9366 16.4634 41.9745C16.1066 42.5447 7.74738 55.9511 11.0969 58.9544C14.4571 61.9717 21.57 64.6435 24.7209 64.9726C27.1532 65.2259 28.85 64.2981 29.4226 63.4509L35.6135 50.0242C35.6392 49.9687 35.6452 49.9061 35.6303 49.8468C35.6155 49.7875 35.5808 49.7351 35.532 49.6983C35.1518 49.4078 34.7763 49.1273 34.4054 48.8569C34.7533 48.2541 38.2242 42.1585 38.445 38.3487C38.8376 31.674 28.7604 26.2929 24.1262 31.1152ZM35.0416 49.994L28.9648 63.1829C28.916 63.2473 27.7593 64.7559 24.773 64.4447C21.759 64.1303 14.6836 61.4617 11.4456 58.5594C8.96681 56.338 14.4147 46.2592 16.8267 42.385C17.9851 42.4314 25.8914 43.0041 35.0416 49.994ZM37.9171 38.3194C37.7102 41.8873 34.4087 47.7849 33.9729 48.5506C32.9913 47.8582 32.0269 47.2375 31.0868 46.677C31.6285 45.5782 33.9664 40.755 34.3557 38.4636C34.8567 35.5091 32.3616 34.3842 30.1313 33.7333C29.408 33.483 28.6168 33.5147 27.9159 33.8221C27.2149 34.1295 26.6557 34.6901 26.35 35.3918L23.9389 40.4683C22.8687 39.3991 21.4396 38.7657 19.9287 38.6909C20.8516 37.021 23.2383 32.8079 24.5107 31.4834C28.7693 27.0472 38.2812 32.0846 37.9171 38.3194Z" fill="black"/>
</svg>
